<mxfile host="app.diagrams.net" modified="2024-03-11T21:36:26.878Z" agent="Mozilla/5.0 (Windows NT 10.0; Win64; x64) AppleWebKit/537.36 (KHTML, like Gecko) Chrome/122.0.0.0 Safari/537.36" etag="wdhx54_Fw6iYelqMiXq-" version="23.1.6" type="github">
  <diagram name="Página-1" id="d0_ZoHlW9Hr2dJfckC8F">
    <mxGraphModel dx="880" dy="426" grid="1" gridSize="10" guides="1" tooltips="1" connect="1" arrows="1" fold="1" page="1" pageScale="1" pageWidth="827" pageHeight="1169" math="0" shadow="0">
      <root>
        <mxCell id="0" />
        <mxCell id="1" parent="0" />
        <mxCell id="lVNskcrdj_55NqQ7-rtI-1" value="Robôs" style="shape=module;align=left;spacingLeft=20;align=center;verticalAlign=top;whiteSpace=wrap;html=1;" vertex="1" parent="1">
          <mxGeometry x="100" y="85" width="110" height="60" as="geometry" />
        </mxCell>
        <mxCell id="lVNskcrdj_55NqQ7-rtI-2" value="Sensores" style="shape=module;align=left;spacingLeft=20;align=center;verticalAlign=top;whiteSpace=wrap;html=1;" vertex="1" parent="1">
          <mxGeometry x="350" y="85" width="110" height="60" as="geometry" />
        </mxCell>
        <mxCell id="lVNskcrdj_55NqQ7-rtI-3" value="LocaisMonitorar" style="shape=module;align=left;spacingLeft=20;align=center;verticalAlign=top;whiteSpace=wrap;html=1;" vertex="1" parent="1">
          <mxGeometry x="580" y="80" width="104" height="60" as="geometry" />
        </mxCell>
        <mxCell id="lVNskcrdj_55NqQ7-rtI-4" value="EstaçãoBase" style="shape=module;align=left;spacingLeft=20;align=center;verticalAlign=top;whiteSpace=wrap;html=1;" vertex="1" parent="1">
          <mxGeometry x="370" y="275" width="110" height="60" as="geometry" />
        </mxCell>
        <mxCell id="lVNskcrdj_55NqQ7-rtI-5" value="" style="rounded=0;orthogonalLoop=1;jettySize=auto;html=1;endArrow=halfCircle;endFill=0;endSize=6;strokeWidth=1;sketch=0;entryX=0.6;entryY=0;entryDx=0;entryDy=0;entryPerimeter=0;exitX=0.9;exitY=-0.3;exitDx=0;exitDy=0;exitPerimeter=0;" edge="1" target="lVNskcrdj_55NqQ7-rtI-7" parent="1" source="lVNskcrdj_55NqQ7-rtI-7">
          <mxGeometry relative="1" as="geometry">
            <mxPoint x="430" y="225" as="sourcePoint" />
          </mxGeometry>
        </mxCell>
        <mxCell id="lVNskcrdj_55NqQ7-rtI-7" value="" style="ellipse;whiteSpace=wrap;html=1;align=center;aspect=fixed;fillColor=none;strokeColor=none;resizable=0;perimeter=centerPerimeter;rotatable=0;allowArrows=0;points=[];outlineConnect=1;" vertex="1" parent="1">
          <mxGeometry x="270" y="110" width="10" height="10" as="geometry" />
        </mxCell>
        <mxCell id="lVNskcrdj_55NqQ7-rtI-8" value="" style="ellipse;whiteSpace=wrap;html=1;align=center;aspect=fixed;fillColor=none;strokeColor=none;resizable=0;perimeter=centerPerimeter;rotatable=0;allowArrows=0;points=[];outlineConnect=1;" vertex="1" parent="1">
          <mxGeometry x="280" y="110" width="10" height="10" as="geometry" />
        </mxCell>
        <mxCell id="lVNskcrdj_55NqQ7-rtI-9" value="" style="ellipse;whiteSpace=wrap;html=1;align=center;aspect=fixed;fillColor=none;strokeColor=none;resizable=0;perimeter=centerPerimeter;rotatable=0;allowArrows=0;points=[];outlineConnect=1;" vertex="1" parent="1">
          <mxGeometry x="330" y="150" width="10" height="10" as="geometry" />
        </mxCell>
        <mxCell id="lVNskcrdj_55NqQ7-rtI-10" value="" style="rounded=0;orthogonalLoop=1;jettySize=auto;html=1;endArrow=halfCircle;endFill=0;endSize=6;strokeWidth=1;sketch=0;exitX=1.3;exitY=0.3;exitDx=0;exitDy=0;exitPerimeter=0;" edge="1" target="lVNskcrdj_55NqQ7-rtI-12" parent="1" source="lVNskcrdj_55NqQ7-rtI-12">
          <mxGeometry relative="1" as="geometry">
            <mxPoint x="420" y="300" as="sourcePoint" />
          </mxGeometry>
        </mxCell>
        <mxCell id="lVNskcrdj_55NqQ7-rtI-12" value="" style="ellipse;whiteSpace=wrap;html=1;align=center;aspect=fixed;fillColor=none;strokeColor=none;resizable=0;perimeter=centerPerimeter;rotatable=0;allowArrows=0;points=[];outlineConnect=1;" vertex="1" parent="1">
          <mxGeometry x="395" y="295" width="10" height="10" as="geometry" />
        </mxCell>
        <mxCell id="lVNskcrdj_55NqQ7-rtI-15" value="" style="rounded=0;orthogonalLoop=1;jettySize=auto;html=1;endArrow=halfCircle;endFill=0;endSize=6;strokeWidth=1;sketch=0;exitX=-0.2;exitY=0.9;exitDx=0;exitDy=0;exitPerimeter=0;" edge="1" target="lVNskcrdj_55NqQ7-rtI-17" parent="1" source="lVNskcrdj_55NqQ7-rtI-17">
          <mxGeometry relative="1" as="geometry">
            <mxPoint x="550" y="195" as="sourcePoint" />
          </mxGeometry>
        </mxCell>
        <mxCell id="lVNskcrdj_55NqQ7-rtI-17" value="" style="ellipse;whiteSpace=wrap;html=1;align=center;aspect=fixed;fillColor=none;strokeColor=none;resizable=0;perimeter=centerPerimeter;rotatable=0;allowArrows=0;points=[];outlineConnect=1;" vertex="1" parent="1">
          <mxGeometry x="740" y="105" width="10" height="10" as="geometry" />
        </mxCell>
        <mxCell id="lVNskcrdj_55NqQ7-rtI-20" value="" style="ellipse;whiteSpace=wrap;html=1;align=center;aspect=fixed;fillColor=none;strokeColor=none;resizable=0;perimeter=centerPerimeter;rotatable=0;allowArrows=0;points=[];outlineConnect=1;" vertex="1" parent="1">
          <mxGeometry x="620" y="275" width="10" height="10" as="geometry" />
        </mxCell>
        <mxCell id="lVNskcrdj_55NqQ7-rtI-23" value="" style="ellipse;whiteSpace=wrap;html=1;align=center;aspect=fixed;fillColor=none;strokeColor=none;resizable=0;perimeter=centerPerimeter;rotatable=0;allowArrows=0;points=[];outlineConnect=1;" vertex="1" parent="1">
          <mxGeometry x="530" y="300" width="10" height="10" as="geometry" />
        </mxCell>
        <mxCell id="lVNskcrdj_55NqQ7-rtI-24" value="" style="rounded=0;orthogonalLoop=1;jettySize=auto;html=1;endArrow=halfCircle;endFill=0;endSize=6;strokeWidth=1;sketch=0;exitX=0.155;exitY=0.567;exitDx=0;exitDy=0;exitPerimeter=0;" edge="1" target="lVNskcrdj_55NqQ7-rtI-26" parent="1" source="lVNskcrdj_55NqQ7-rtI-4">
          <mxGeometry relative="1" as="geometry">
            <mxPoint x="440" y="225" as="sourcePoint" />
          </mxGeometry>
        </mxCell>
        <mxCell id="lVNskcrdj_55NqQ7-rtI-25" value="" style="rounded=0;orthogonalLoop=1;jettySize=auto;html=1;endArrow=oval;endFill=0;sketch=0;sourcePerimeterSpacing=0;targetPerimeterSpacing=0;endSize=10;exitX=1;exitY=0.5;exitDx=0;exitDy=0;" edge="1" target="lVNskcrdj_55NqQ7-rtI-26" parent="1" source="lVNskcrdj_55NqQ7-rtI-1">
          <mxGeometry relative="1" as="geometry">
            <mxPoint x="400" y="225" as="sourcePoint" />
          </mxGeometry>
        </mxCell>
        <mxCell id="lVNskcrdj_55NqQ7-rtI-26" value="" style="ellipse;whiteSpace=wrap;html=1;align=center;aspect=fixed;fillColor=none;strokeColor=none;resizable=0;perimeter=centerPerimeter;rotatable=0;allowArrows=0;points=[];outlineConnect=1;" vertex="1" parent="1">
          <mxGeometry x="240" y="300" width="10" height="10" as="geometry" />
        </mxCell>
        <mxCell id="lVNskcrdj_55NqQ7-rtI-33" value="" style="rounded=0;orthogonalLoop=1;jettySize=auto;html=1;endArrow=halfCircle;endFill=0;endSize=6;strokeWidth=1;sketch=0;exitX=0.1;exitY=0.617;exitDx=0;exitDy=0;exitPerimeter=0;" edge="1" parent="1" source="lVNskcrdj_55NqQ7-rtI-2">
          <mxGeometry relative="1" as="geometry">
            <mxPoint x="440" y="225" as="sourcePoint" />
            <mxPoint x="320" y="120" as="targetPoint" />
          </mxGeometry>
        </mxCell>
        <mxCell id="lVNskcrdj_55NqQ7-rtI-34" value="" style="rounded=0;orthogonalLoop=1;jettySize=auto;html=1;endArrow=oval;endFill=0;sketch=0;sourcePerimeterSpacing=0;targetPerimeterSpacing=0;endSize=10;exitX=1;exitY=0.5;exitDx=0;exitDy=0;" edge="1" parent="1" source="lVNskcrdj_55NqQ7-rtI-1">
          <mxGeometry relative="1" as="geometry">
            <mxPoint x="400" y="225" as="sourcePoint" />
            <mxPoint x="320" y="120" as="targetPoint" />
          </mxGeometry>
        </mxCell>
        <mxCell id="lVNskcrdj_55NqQ7-rtI-35" value="" style="ellipse;whiteSpace=wrap;html=1;align=center;aspect=fixed;fillColor=none;strokeColor=none;resizable=0;perimeter=centerPerimeter;rotatable=0;allowArrows=0;points=[];outlineConnect=1;" vertex="1" parent="1">
          <mxGeometry x="415" y="220" width="10" height="10" as="geometry" />
        </mxCell>
        <mxCell id="lVNskcrdj_55NqQ7-rtI-36" value="" style="rounded=0;orthogonalLoop=1;jettySize=auto;html=1;endArrow=halfCircle;endFill=0;endSize=6;strokeWidth=1;sketch=0;exitX=0.096;exitY=0.433;exitDx=0;exitDy=0;exitPerimeter=0;" edge="1" target="lVNskcrdj_55NqQ7-rtI-38" parent="1" source="lVNskcrdj_55NqQ7-rtI-3">
          <mxGeometry relative="1" as="geometry">
            <mxPoint x="440" y="225" as="sourcePoint" />
          </mxGeometry>
        </mxCell>
        <mxCell id="lVNskcrdj_55NqQ7-rtI-37" value="" style="rounded=0;orthogonalLoop=1;jettySize=auto;html=1;endArrow=oval;endFill=0;sketch=0;sourcePerimeterSpacing=0;targetPerimeterSpacing=0;endSize=10;exitX=0.5;exitY=0;exitDx=0;exitDy=0;" edge="1" target="lVNskcrdj_55NqQ7-rtI-38" parent="1" source="lVNskcrdj_55NqQ7-rtI-4">
          <mxGeometry relative="1" as="geometry">
            <mxPoint x="400" y="225" as="sourcePoint" />
          </mxGeometry>
        </mxCell>
        <mxCell id="lVNskcrdj_55NqQ7-rtI-38" value="" style="ellipse;whiteSpace=wrap;html=1;align=center;aspect=fixed;fillColor=none;strokeColor=none;resizable=0;perimeter=centerPerimeter;rotatable=0;allowArrows=0;points=[];outlineConnect=1;" vertex="1" parent="1">
          <mxGeometry x="415" y="220" width="10" height="10" as="geometry" />
        </mxCell>
      </root>
    </mxGraphModel>
  </diagram>
</mxfile>
